# xmcd
#
# Track frame offsets:
#	150
#	16845
#	35407
#	49102
#	62703
#	80985
#	96926
#	110884
#	129385
#	149606
#	164261
#	182071
#	199320
#	214156
#
# Disc length: 3079 seconds
#
# Revision: 1
# Processed by: cddbd v1.5.2PL0 Copyright (c) Steve Scherf et al.
# Submitted via: audiograbber 1.83.01
#
DISCID=d30c050e
DTITLE=Reba McEntire - Love Somebody (Deluxe Edition)
DYEAR=2015
DGENRE=Country
TTITLE0=Going Out Like That
TTITLE1=Enough
TTITLE2=She Got Drunk Last Night
TTITLE3=Livin' Ain't Killed Me Yet
TTITLE4=That's When I Knew
TTITLE5=I'll Go On
TTITLE6=Until They Don't Love You
TTITLE7=Promise Me Love
TTITLE8=Just Like Them Horses
TTITLE9=Love Somebody
TTITLE10=Love Land
TTITLE11=Pray For Peace
TTITLE12=Whatever Way It Hurts The Least
TTITLE13=More Than Just Her Last Name
EXTD=
EXTT0=
EXTT1=
EXTT2=
EXTT3=
EXTT4=
EXTT5=
EXTT6=
EXTT7=
EXTT8=
EXTT9=
EXTT10=
EXTT11=
EXTT12=
EXTT13=
PLAYORDER=
